# xmcd CD database file
#
# Track frame offsets:
#	150
#	14200
#	27433
#	41994
#	54824
#	66071
#	79425
#	90960
#	103510
#	116618
#	129467
#	140698
#	151936
#
# Disc length: 2247 seconds
#
# Revision: 0
# Processed by: cddbd v1.5.2PL0 Copyright (c) Steve Scherf et al.
# Submitted via: CDex 1.50beta9
#
DISCID=ad08c50d
DTITLE=Don Byas - En ce temps-là
DYEAR=1952
DGENRE=Jazz
TTITLE0=These foolish things
TTITLE1=Humoresque
TTITLE2=Stormy weather
TTITLE3=Riffin' and jivin'
TTITLE4=I can't explain
TTITLE5=Blues for Panassié
TTITLE6=En ce temps-là
TTITLE7=Là-bas
TTITLE8=This is always
TTITLE9=Cottage for sale
TTITLE10=You can depend on me
TTITLE11=That old feeling
TTITLE12=Don't blame me
EXTD=
EXTT0=
EXTT1=
EXTT2=
EXTT3=
EXTT4=
EXTT5=
EXTT6=
EXTT7=
EXTT8=
EXTT9=
EXTT10=
EXTT11=
EXTT12=
PLAYORDER=
